{
	"asset":{
		"generator":"Khronos glTF Blender I/O v4.0.44",
		"version":"2.0"
	},
	"scene":0,
	"scenes":[
		{
			"extras":{
				"svg_export":{}
			},
			"name":"Scene",
			"nodes":[
				0,
				1,
				2,
				3,
				4
			]
		}
	],
	"nodes":[
		{
			"camera":0,
			"name":"MainCam",
			"rotation":[
				-0.2153739184141159,
				-0.6758636832237244,
				-0.2170730084180832,
				0.670598030090332
			],
			"translation":[
				-18.784914016723633,
				20.66329574584961,
				0.7181546688079834
			]
		},
		{
			"mesh":0,
			"name":"Plane",
			"scale":[
				-8.471935272216797,
				-8.471935272216797,
				-8.471935272216797
			],
			"translation":[
				0,
				6.103874683380127,
				0
			]
		},
		{
			"mesh":1,
			"name":"home",
			"translation":[
				-0.11581540107727051,
				9.823996543884277,
				4.263337135314941
			]
		},
		{
			"mesh":2,
			"name":"about",
			"translation":[
				4.824431419372559,
				9.441315650939941,
				-2.0111303329467773
			]
		},
		{
			"mesh":3,
			"name":"contact",
			"translation":[
				-4.0729827880859375,
				10.51084041595459,
				-2.848127603530884
			]
		}
	],
	"cameras":[
		{
			"name":"Camera",
			"perspective":{
				"aspectRatio":1.7777777777777777,
				"yfov":0.6718132140318145,
				"zfar":99.80000305175781,
				"znear":0.10000000149011612
			},
			"type":"perspective"
		}
	],
	"materials":[
		{
			"doubleSided":true,
			"name":"Material",
			"pbrMetallicRoughness":{
				"baseColorFactor":[
					0.32179367542266846,
					0.10221686959266663,
					0,
					1
				],
				"metallicFactor":0,
				"roughnessFactor":0.5
			}
		},
		{
			"doubleSided":true,
			"name":"Material.005",
			"pbrMetallicRoughness":{
				"baseColorFactor":[
					0.5063063502311707,
					0,
					0.006129073910415173,
					1
				],
				"metallicFactor":0,
				"roughnessFactor":0.5
			}
		},
		{
			"doubleSided":true,
			"name":"Material.009",
			"pbrMetallicRoughness":{
				"baseColorFactor":[
					0.005969590041786432,
					0.0010852051200345159,
					0.5060641169548035,
					1
				],
				"metallicFactor":0,
				"roughnessFactor":0.5
			}
		},
		{
			"doubleSided":true,
			"name":"Material.010",
			"pbrMetallicRoughness":{
				"baseColorFactor":[
					0,
					0.5060412287712097,
					0.006483105942606926,
					1
				],
				"metallicFactor":0,
				"roughnessFactor":0.5
			}
		}
	],
	"meshes":[
		{
			"name":"Plane",
			"primitives":[
				{
					"attributes":{
						"POSITION":0,
						"NORMAL":1,
						"TEXCOORD_0":2
					},
					"indices":3,
					"material":0
				}
			]
		},
		{
			"name":"Cube.004",
			"primitives":[
				{
					"attributes":{
						"POSITION":4,
						"NORMAL":5,
						"TEXCOORD_0":6
					},
					"indices":7,
					"material":1
				}
			]
		},
		{
			"name":"Cube.005",
			"primitives":[
				{
					"attributes":{
						"POSITION":8,
						"NORMAL":9,
						"TEXCOORD_0":10
					},
					"indices":7,
					"material":2
				}
			]
		},
		{
			"name":"Cube.006",
			"primitives":[
				{
					"attributes":{
						"POSITION":11,
						"NORMAL":12,
						"TEXCOORD_0":13
					},
					"indices":7,
					"material":3
				}
			]
		}
	],
	"accessors":[
		{
			"bufferView":0,
			"componentType":5126,
			"count":352,
			"max":[
				0.8876975774765015,
				0.7449846863746643,
				0.8876975774765015
			],
			"min":[
				-0.8876975774765015,
				-0.254974365234375,
				-0.8876975774765015
			],
			"type":"VEC3"
		},
		{
			"bufferView":1,
			"componentType":5126,
			"count":352,
			"type":"VEC3"
		},
		{
			"bufferView":2,
			"componentType":5126,
			"count":352,
			"type":"VEC2"
		},
		{
			"bufferView":3,
			"componentType":5123,
			"count":528,
			"type":"SCALAR"
		},
		{
			"bufferView":4,
			"componentType":5126,
			"count":24,
			"max":[
				1,
				1,
				1
			],
			"min":[
				-1,
				-1,
				-1
			],
			"type":"VEC3"
		},
		{
			"bufferView":5,
			"componentType":5126,
			"count":24,
			"type":"VEC3"
		},
		{
			"bufferView":6,
			"componentType":5126,
			"count":24,
			"type":"VEC2"
		},
		{
			"bufferView":7,
			"componentType":5123,
			"count":36,
			"type":"SCALAR"
		},
		{
			"bufferView":8,
			"componentType":5126,
			"count":24,
			"max":[
				1,
				1,
				1
			],
			"min":[
				-1,
				-1,
				-1
			],
			"type":"VEC3"
		},
		{
			"bufferView":9,
			"componentType":5126,
			"count":24,
			"type":"VEC3"
		},
		{
			"bufferView":10,
			"componentType":5126,
			"count":24,
			"type":"VEC2"
		},
		{
			"bufferView":11,
			"componentType":5126,
			"count":24,
			"max":[
				1,
				1,
				1
			],
			"min":[
				-1,
				-1,
				-1
			],
			"type":"VEC3"
		},
		{
			"bufferView":12,
			"componentType":5126,
			"count":24,
			"type":"VEC3"
		},
		{
			"bufferView":13,
			"componentType":5126,
			"count":24,
			"type":"VEC2"
		}
	],
	"bufferViews":[
		{
			"buffer":0,
			"byteLength":4224,
			"byteOffset":0,
			"target":34962
		},
		{
			"buffer":0,
			"byteLength":4224,
			"byteOffset":4224,
			"target":34962
		},
		{
			"buffer":0,
			"byteLength":2816,
			"byteOffset":8448,
			"target":34962
		},
		{
			"buffer":0,
			"byteLength":1056,
			"byteOffset":11264,
			"target":34963
		},
		{
			"buffer":0,
			"byteLength":288,
			"byteOffset":12320,
			"target":34962
		},
		{
			"buffer":0,
			"byteLength":288,
			"byteOffset":12608,
			"target":34962
		},
		{
			"buffer":0,
			"byteLength":192,
			"byteOffset":12896,
			"target":34962
		},
		{
			"buffer":0,
			"byteLength":72,
			"byteOffset":13088,
			"target":34963
		},
		{
			"buffer":0,
			"byteLength":288,
			"byteOffset":13160,
			"target":34962
		},
		{
			"buffer":0,
			"byteLength":288,
			"byteOffset":13448,
			"target":34962
		},
		{
			"buffer":0,
			"byteLength":192,
			"byteOffset":13736,
			"target":34962
		},
		{
			"buffer":0,
			"byteLength":288,
			"byteOffset":13928,
			"target":34962
		},
		{
			"buffer":0,
			"byteLength":288,
			"byteOffset":14216,
			"target":34962
		},
		{
			"buffer":0,
			"byteLength":192,
			"byteOffset":14504,
			"target":34962
		}
	],
	"buffers":[
		{
			"byteLength":14696,
			"uri":"scene.bin"
		}
	]
}
