{
	"asset":{
		"generator":"Khronos glTF Blender I/O v4.0.44",
		"version":"2.0"
	},
	"scene":0,
	"scenes":[
		{
			"extras":{
				"svg_export":{}
			},
			"name":"Scene",
			"nodes":[
				0,
				1,
				2,
				3
			]
		}
	],
	"nodes":[
		{
			"extras":{
				"gltf2_animation_rest":[
					1.0,
					0.0,
					0.0,
					0.0,
					0.0,
					1.0,
					0.0,
					0.0,
					0.0,
					0.0,
					1.0,
					0.0,
					0.0,
					0.0,
					0.0,
					1.0
				]
			},
			"mesh":0,
			"name":"Cloud",
			"rotation":[
				-0.6739514470100403,
				0.2139851152896881,
				0.21398520469665527,
				0.6739511489868164
			],
			"scale":[
				0.8647299408912659,
				0.864730179309845,
				0.8647302389144897
			],
			"translation":[
				-2.989412307739258,
				1.1037750244140625,
				-3.2326371669769287
			]
		},
		{
			"camera":0,
			"name":"MainCam",
			"rotation":[
				0.009210200980305672,
				0.4154171347618103,
				-0.004207043908536434,
				0.9095746874809265
			],
			"translation":[
				27.4420108795166,
				0.7824158668518066,
				30.749141693115234
			]
		},
		{
			"mesh":1,
			"name":"Cube",
			"translation":[
				0,
				1.6154370307922363,
				0
			]
		},
		{
			"mesh":2,
			"name":"Plane",
			"scale":[
				23.67803192138672,
				23.67803192138672,
				23.67803192138672
			]
		}
	],
	"cameras":[
		{
			"name":"Camera",
			"perspective":{
				"aspectRatio":1.7777777777777777,
				"yfov":0.21688771383518649,
				"zfar":99.80000305175781,
				"znear":0.10000000149011612
			},
			"type":"perspective"
		}
	],
	"animations":[
		{
			"channels":[
				{
					"sampler":0,
					"target":{
						"node":0,
						"path":"translation"
					}
				}
			],
			"extras":{
				"gltf2_animation_rest":[
					1.0,
					0.0,
					0.0,
					0.0,
					0.0,
					1.0,
					0.0,
					0.0,
					0.0,
					0.0,
					1.0,
					0.0,
					0.0,
					0.0,
					0.0,
					1.0
				]
			},
			"name":"Cloud",
			"samplers":[
				{
					"input":11,
					"interpolation":"LINEAR",
					"output":12
				}
			]
		},
		{
			"channels":[
				{
					"sampler":0,
					"target":{
						"node":2,
						"path":"translation"
					}
				}
			],
			"name":"Cube",
			"samplers":[
				{
					"input":11,
					"interpolation":"LINEAR",
					"output":13
				}
			]
		}
	],
	"materials":[
		{
			"doubleSided":true,
			"name":"CloudMaterial",
			"pbrMetallicRoughness":{
				"baseColorFactor":[
					0.11165744066238403,
					0.27458226680755615,
					1,
					1
				],
				"metallicFactor":0.752212405204773,
				"roughnessFactor":0.6000000238418579
			}
		},
		{
			"doubleSided":true,
			"name":"Material.001",
			"pbrMetallicRoughness":{
				"baseColorFactor":[
					0.800000011920929,
					0.800000011920929,
					0.800000011920929,
					1
				],
				"metallicFactor":0,
				"roughnessFactor":0.5
			}
		},
		{
			"doubleSided":true,
			"name":"Material.002",
			"pbrMetallicRoughness":{
				"baseColorFactor":[
					0.01736772060394287,
					0.8004242181777954,
					0.1463690549135208,
					1
				],
				"metallicFactor":0,
				"roughnessFactor":0.5
			}
		}
	],
	"meshes":[
		{
			"name":"Cloud_0",
			"primitives":[
				{
					"attributes":{
						"POSITION":0,
						"NORMAL":1
					},
					"indices":2,
					"material":0
				}
			]
		},
		{
			"name":"Cube",
			"primitives":[
				{
					"attributes":{
						"POSITION":3,
						"NORMAL":4,
						"TEXCOORD_0":5
					},
					"indices":6,
					"material":1
				}
			]
		},
		{
			"name":"Plane.001",
			"primitives":[
				{
					"attributes":{
						"POSITION":7,
						"NORMAL":8,
						"TEXCOORD_0":9
					},
					"indices":10,
					"material":2
				}
			]
		}
	],
	"accessors":[
		{
			"bufferView":0,
			"componentType":5126,
			"count":396,
			"max":[
				2.4904799461364746,
				1.1639599800109863,
				1.909850001335144
			],
			"min":[
				-2.6884400844573975,
				-1.1592199802398682,
				-1.0944900512695312
			],
			"type":"VEC3"
		},
		{
			"bufferView":1,
			"componentType":5126,
			"count":396,
			"type":"VEC3"
		},
		{
			"bufferView":2,
			"componentType":5123,
			"count":420,
			"type":"SCALAR"
		},
		{
			"bufferView":3,
			"componentType":5126,
			"count":1536,
			"max":[
				0.5323134064674377,
				0.551273763179779,
				0.5239222645759583
			],
			"min":[
				-0.5671569108963013,
				-0.5394972562789917,
				-0.5495491027832031
			],
			"type":"VEC3"
		},
		{
			"bufferView":4,
			"componentType":5126,
			"count":1536,
			"type":"VEC3"
		},
		{
			"bufferView":5,
			"componentType":5126,
			"count":1536,
			"type":"VEC2"
		},
		{
			"bufferView":6,
			"componentType":5123,
			"count":2304,
			"type":"SCALAR"
		},
		{
			"bufferView":7,
			"componentType":5126,
			"count":4,
			"max":[
				1,
				0,
				1
			],
			"min":[
				-1,
				0,
				-1
			],
			"type":"VEC3"
		},
		{
			"bufferView":8,
			"componentType":5126,
			"count":4,
			"type":"VEC3"
		},
		{
			"bufferView":9,
			"componentType":5126,
			"count":4,
			"type":"VEC2"
		},
		{
			"bufferView":10,
			"componentType":5123,
			"count":6,
			"type":"SCALAR"
		},
		{
			"bufferView":11,
			"componentType":5126,
			"count":100,
			"max":[
				4.166666666666667
			],
			"min":[
				0.041666666666666664
			],
			"type":"SCALAR"
		},
		{
			"bufferView":12,
			"componentType":5126,
			"count":100,
			"type":"VEC3"
		},
		{
			"bufferView":13,
			"componentType":5126,
			"count":100,
			"type":"VEC3"
		}
	],
	"bufferViews":[
		{
			"buffer":0,
			"byteLength":4752,
			"byteOffset":0,
			"target":34962
		},
		{
			"buffer":0,
			"byteLength":4752,
			"byteOffset":4752,
			"target":34962
		},
		{
			"buffer":0,
			"byteLength":840,
			"byteOffset":9504,
			"target":34963
		},
		{
			"buffer":0,
			"byteLength":18432,
			"byteOffset":10344,
			"target":34962
		},
		{
			"buffer":0,
			"byteLength":18432,
			"byteOffset":28776,
			"target":34962
		},
		{
			"buffer":0,
			"byteLength":12288,
			"byteOffset":47208,
			"target":34962
		},
		{
			"buffer":0,
			"byteLength":4608,
			"byteOffset":59496,
			"target":34963
		},
		{
			"buffer":0,
			"byteLength":48,
			"byteOffset":64104,
			"target":34962
		},
		{
			"buffer":0,
			"byteLength":48,
			"byteOffset":64152,
			"target":34962
		},
		{
			"buffer":0,
			"byteLength":32,
			"byteOffset":64200,
			"target":34962
		},
		{
			"buffer":0,
			"byteLength":12,
			"byteOffset":64232,
			"target":34963
		},
		{
			"buffer":0,
			"byteLength":400,
			"byteOffset":64244
		},
		{
			"buffer":0,
			"byteLength":1200,
			"byteOffset":64644
		},
		{
			"buffer":0,
			"byteLength":1200,
			"byteOffset":65844
		}
	],
	"buffers":[
		{
			"byteLength":67044,
			"uri":"scene.bin"
		}
	]
}
