{
	"asset":{
		"generator":"Khronos glTF Blender I/O v4.0.44",
		"version":"2.0"
	},
	"scene":0,
	"scenes":[
		{
			"extras":{
				"svg_export":{}
			},
			"name":"Scene",
			"nodes":[
				0,
				1,
				2,
				3
			]
		}
	],
	"nodes":[
		{
			"extras":{
				"gltf2_animation_rest":[
					1.0,
					0.0,
					0.0,
					0.0,
					0.0,
					1.0,
					0.0,
					0.0,
					0.0,
					0.0,
					1.0,
					0.0,
					0.0,
					0.0,
					0.0,
					1.0
				]
			},
			"mesh":0,
			"name":"Cloud",
			"rotation":[
				-0.6739514470100403,
				0.2139851152896881,
				0.21398520469665527,
				0.6739511489868164
			],
			"scale":[
				0.8647299408912659,
				0.864730179309845,
				0.8647302389144897
			],
			"translation":[
				-2.989412307739258,
				1.1037750244140625,
				-3.2326371669769287
			]
		},
		{
			"extras":{
				"gltf2_animation_rest":[
					1.0,
					0.0,
					0.0,
					0.0,
					0.0,
					1.0,
					0.0,
					0.0,
					0.0,
					0.0,
					1.0,
					0.0,
					0.0,
					0.0,
					0.0,
					1.0
				]
			},
			"mesh":1,
			"name":"Flying Island",
			"scale":[
				0.03636319190263748,
				0.03636320307850838,
				0.03636320307850838
			],
			"translation":[
				-3.407170295715332,
				-8.19216251373291,
				0.1474742889404297
			]
		},
		{
			"camera":0,
			"name":"MainCam",
			"rotation":[
				-0.09734930098056793,
				-0.2784387171268463,
				-0.028380125761032104,
				0.9550861716270447
			],
			"translation":[
				-24.79695701599121,
				11.963907241821289,
				32.88075256347656
			]
		},
		{
			"mesh":2,
			"name":"Cube",
			"translation":[
				0,
				1.6154370307922363,
				0
			]
		}
	],
	"cameras":[
		{
			"name":"Camera",
			"perspective":{
				"aspectRatio":1.7777777777777777,
				"yfov":0.21688771383518649,
				"zfar":99.80000305175781,
				"znear":0.10000000149011612
			},
			"type":"perspective"
		}
	],
	"animations":[
		{
			"channels":[
				{
					"sampler":0,
					"target":{
						"node":0,
						"path":"translation"
					}
				}
			],
			"extras":{
				"gltf2_animation_rest":[
					1.0,
					0.0,
					0.0,
					0.0,
					0.0,
					1.0,
					0.0,
					0.0,
					0.0,
					0.0,
					1.0,
					0.0,
					0.0,
					0.0,
					0.0,
					1.0
				]
			},
			"name":"Cloud",
			"samplers":[
				{
					"input":11,
					"interpolation":"LINEAR",
					"output":12
				}
			]
		},
		{
			"channels":[
				{
					"sampler":0,
					"target":{
						"node":3,
						"path":"translation"
					}
				}
			],
			"name":"Cube",
			"samplers":[
				{
					"input":11,
					"interpolation":"LINEAR",
					"output":13
				}
			]
		}
	],
	"materials":[
		{
			"doubleSided":true,
			"name":"CloudMaterial",
			"pbrMetallicRoughness":{
				"baseColorFactor":[
					0.11165744066238403,
					0.27458226680755615,
					1,
					1
				],
				"metallicFactor":0.752212405204773,
				"roughnessFactor":0.6000000238418579
			}
		},
		{
			"doubleSided":true,
			"name":"Material.004",
			"pbrMetallicRoughness":{
				"baseColorTexture":{
					"index":0
				},
				"metallicFactor":0,
				"roughnessFactor":0.8211145401000977
			}
		},
		{
			"doubleSided":true,
			"name":"Material.001",
			"pbrMetallicRoughness":{
				"baseColorFactor":[
					0.800000011920929,
					0.800000011920929,
					0.800000011920929,
					1
				],
				"metallicFactor":0,
				"roughnessFactor":0.5
			}
		}
	],
	"meshes":[
		{
			"name":"Cloud_0",
			"primitives":[
				{
					"attributes":{
						"POSITION":0,
						"NORMAL":1
					},
					"indices":2,
					"material":0
				}
			]
		},
		{
			"name":"Icosphere.001_Material.004_0",
			"primitives":[
				{
					"attributes":{
						"POSITION":3,
						"NORMAL":4,
						"TEXCOORD_0":5
					},
					"indices":6,
					"material":1
				}
			]
		},
		{
			"name":"Cube",
			"primitives":[
				{
					"attributes":{
						"POSITION":7,
						"NORMAL":8,
						"TEXCOORD_0":9
					},
					"indices":10,
					"material":2
				}
			]
		}
	],
	"textures":[
		{
			"sampler":0,
			"source":0
		}
	],
	"images":[
		{
			"mimeType":"image/png",
			"name":"Material.004_baseColor",
			"uri":"Material_004_baseColor.png"
		}
	],
	"accessors":[
		{
			"bufferView":0,
			"componentType":5126,
			"count":396,
			"max":[
				2.4904799461364746,
				1.1639599800109863,
				1.909850001335144
			],
			"min":[
				-2.6884400844573975,
				-1.1592199802398682,
				-1.0944900512695312
			],
			"type":"VEC3"
		},
		{
			"bufferView":1,
			"componentType":5126,
			"count":396,
			"type":"VEC3"
		},
		{
			"bufferView":2,
			"componentType":5123,
			"count":420,
			"type":"SCALAR"
		},
		{
			"bufferView":3,
			"componentType":5126,
			"count":8723,
			"max":[
				145.9160614013672,
				489.36956787109375,
				83.9549560546875
			],
			"min":[
				-184.48460388183594,
				6.956934928894043,
				-150.03152465820312
			],
			"type":"VEC3"
		},
		{
			"bufferView":4,
			"componentType":5126,
			"count":8723,
			"type":"VEC3"
		},
		{
			"bufferView":5,
			"componentType":5126,
			"count":8723,
			"type":"VEC2"
		},
		{
			"bufferView":6,
			"componentType":5123,
			"count":9729,
			"type":"SCALAR"
		},
		{
			"bufferView":7,
			"componentType":5126,
			"count":1536,
			"max":[
				1.0761555433273315,
				1.1966147422790527,
				1.057365894317627
			],
			"min":[
				-1.192886471748352,
				-1.1586699485778809,
				-1.1364822387695312
			],
			"type":"VEC3"
		},
		{
			"bufferView":8,
			"componentType":5126,
			"count":1536,
			"type":"VEC3"
		},
		{
			"bufferView":9,
			"componentType":5126,
			"count":1536,
			"type":"VEC2"
		},
		{
			"bufferView":10,
			"componentType":5123,
			"count":2304,
			"type":"SCALAR"
		},
		{
			"bufferView":11,
			"componentType":5126,
			"count":100,
			"max":[
				4.166666666666667
			],
			"min":[
				0.041666666666666664
			],
			"type":"SCALAR"
		},
		{
			"bufferView":12,
			"componentType":5126,
			"count":100,
			"type":"VEC3"
		},
		{
			"bufferView":13,
			"componentType":5126,
			"count":100,
			"type":"VEC3"
		}
	],
	"bufferViews":[
		{
			"buffer":0,
			"byteLength":4752,
			"byteOffset":0,
			"target":34962
		},
		{
			"buffer":0,
			"byteLength":4752,
			"byteOffset":4752,
			"target":34962
		},
		{
			"buffer":0,
			"byteLength":840,
			"byteOffset":9504,
			"target":34963
		},
		{
			"buffer":0,
			"byteLength":104676,
			"byteOffset":10344,
			"target":34962
		},
		{
			"buffer":0,
			"byteLength":104676,
			"byteOffset":115020,
			"target":34962
		},
		{
			"buffer":0,
			"byteLength":69784,
			"byteOffset":219696,
			"target":34962
		},
		{
			"buffer":0,
			"byteLength":19458,
			"byteOffset":289480,
			"target":34963
		},
		{
			"buffer":0,
			"byteLength":18432,
			"byteOffset":308940,
			"target":34962
		},
		{
			"buffer":0,
			"byteLength":18432,
			"byteOffset":327372,
			"target":34962
		},
		{
			"buffer":0,
			"byteLength":12288,
			"byteOffset":345804,
			"target":34962
		},
		{
			"buffer":0,
			"byteLength":4608,
			"byteOffset":358092,
			"target":34963
		},
		{
			"buffer":0,
			"byteLength":400,
			"byteOffset":362700
		},
		{
			"buffer":0,
			"byteLength":1200,
			"byteOffset":363100
		},
		{
			"buffer":0,
			"byteLength":1200,
			"byteOffset":364300
		}
	],
	"samplers":[
		{
			"magFilter":9729,
			"minFilter":9987
		}
	],
	"buffers":[
		{
			"byteLength":365500,
			"uri":"scene.bin"
		}
	]
}
